<svg height="512pt" viewBox="0 -69 512.0025 512" width="512pt" xmlns="http://www.w3.org/2000/svg"><path d="m29.183594 344.480469c-28.957032-28.957031-28.957032-75.910157 0-104.871094l88.390625-88.390625 104.871093 104.871094-88.390624 88.390625c-28.957032 28.960937-75.910157 28.960937-104.871094 0zm0 0" fill="#44ffe8"/><path d="m482.820312 344.480469c28.957032-28.957031 28.957032-75.910157 0-104.871094l-88.390624-88.390625-104.871094 104.871094 88.390625 88.390625c28.957031 28.960937 75.910156 28.960937 104.871093 0zm0 0" fill="#ffe477"/><path d="m266.097656 135.890625h-22.269531c-58.609375 0-106.117187-47.507813-106.117187-106.117187v-22.269532h22.269531c58.609375 0 106.117187 47.507813 106.117187 106.117188zm0 0" fill="#b6e892"/><path d="m266.097656 135.890625h18.769532c49.386718 0 89.425781-40.035156 89.425781-89.425781v-18.769532h-18.769531c-49.386719 0-89.425782 40.039063-89.425782 89.425782zm0 0" fill="#b6e892"/><path d="m59.1875 344.480469c-28.957031-28.957031-28.957031-75.910157 0-104.871094l73.386719-73.386719-15-15.003906-88.390625 88.390625c-28.957032 28.960937-28.957032 75.910156 0 104.871094 18.316406 18.316406 43.832031 25.035156 67.4375 20.179687-13.714844-2.820312-26.789063-9.535156-37.433594-20.179687zm0 0" fill="#57a4ff"/><path d="m407.953125 344.480469-88.390625-88.390625 89.871094-89.867188-15.003906-15.003906-104.871094 104.871094 88.390625 88.390625c18.316406 18.316406 43.828125 25.035156 67.4375 20.179687-13.71875-2.820312-26.792969-9.535156-37.433594-20.179687zm0 0" fill="#ffb655"/><path d="m167.714844 29.773438v-21.988282c-2.554688-.183594-5.132813-.28125-7.734375-.28125h-22.269531v22.269532c0 58.609374 47.507812 106.117187 106.117187 106.117187h22.269531v-.28125c-54.996094-3.960937-98.382812-49.828125-98.382812-105.835937zm0 0" fill="#95d6a6"/><path d="m296.101562 117.121094c0-45.582032 34.105469-83.195313 78.191407-88.722656v-.703126h-18.769531c-49.386719 0-89.425782 40.039063-89.425782 89.425782v18.769531h18.769532c3.804687 0 7.554687-.238281 11.234374-.699219zm0 0" fill="#95d6a6"/><path d="m87.386719 170.800781 10.605469 10.605469 19.582031-19.578125 94.261719 94.261719-83.085938 83.085937c-12.589844 12.589844-29.328125 19.523438-47.132812 19.523438-17.804688 0-34.542969-6.933594-47.132813-19.523438-12.585937-12.589843-19.519531-29.328125-19.519531-47.128906 0-17.804687 6.929687-34.542969 19.519531-47.132813l49.363281-49.363281-10.609375-10.605469-49.359375 49.359376c-31.839844 31.839843-31.839844 83.644531 0 115.480468 15.421875 15.421875 35.929688 23.917969 57.738282 23.917969 21.8125 0 42.316406-8.496094 57.742187-23.917969l93.691406-93.695312-115.476562-115.476563zm0 0"/><path d="m488.125 234.304688-93.695312-93.691407-42.289063 42.289063 10.605469 10.609375 31.683594-31.683594 83.085937 83.085937c12.589844 12.589844 19.523437 29.328126 19.523437 47.128907 0 17.804687-6.933593 34.542969-19.523437 47.132812-12.589844 12.589844-29.328125 19.523438-47.132813 19.523438-17.804687 0-34.539062-6.933594-47.128906-19.523438l-83.085937-83.085937 48.433593-48.433594-10.605468-10.609375-59.042969 59.042969 93.691406 93.695312c15.421875 15.421875 35.929688 23.917969 57.738281 23.917969 21.8125 0 42.320313-8.496094 57.742188-23.917969 31.835938-31.835937 31.835938-83.640625 0-115.480468zm0 0"/><path d="m381.792969 46.464844v-26.269532h-26.269531c-39.019532 0-72.730469 23.179688-88.085938 56.492188-15.359375-44.574219-57.730469-76.6875-107.457031-76.6875h-29.769531v29.773438c0 62.652343 50.96875 113.621093 113.617187 113.621093h14.769531v96.039063h15.003906v-96.039063h11.265626c53.445312 0 96.925781-43.484375 96.925781-96.929687zm-26.269531-11.265625h11.269531v11.265625c0 45.175781-36.753907 81.925781-81.925781 81.925781h-.660157l34.253907-34.25-10.609376-10.609375-34.25 34.25v-.65625c0-45.175781 36.75-81.925781 81.921876-81.925781zm-210.3125-5.425781v-14.769532h14.769531c54.378906 0 98.617187 44.238282 98.617187 98.617188v4.160156l-34.253906-34.25-10.605469 10.605469 34.25 34.253906h-4.160156c-54.375 0-98.617187-44.238281-98.617187-98.617187zm0 0"/><g fill="#fff"><path d="m81.621094 348.699219c-15.132813 0-29.359375-5.894531-40.058594-16.59375l10.605469-10.609375c7.867187 7.867187 18.328125 12.199218 29.453125 12.199218s21.582031-4.332031 29.449218-12.199218l35.347657-35.347656 10.609375 10.609374-35.347656 35.347657c-10.699219 10.699219-24.925782 16.59375-40.058594 16.59375zm82.476562-59.015625-10.605468-10.605469 10.605468-10.609375 10.609375 10.609375zm17.683594-17.679688-10.609375-10.609375 10.609375-10.605469 10.605469 10.609376zm0 0"/><path d="m430.382812 348.699219c-15.132812 0-29.359374-5.894531-40.058593-16.59375l10.609375-10.609375c7.867187 7.867187 18.324218 12.199218 29.449218 12.199218s21.585938-4.332031 29.453126-12.199218c5.476562-5.472656 9.304687-12.34375 11.066406-19.859375l14.605468 3.429687c-2.402343 10.234375-7.609374 19.585938-15.0625 27.039063-10.703124 10.699219-24.929687 16.59375-40.0625 16.59375zm56.605469-55.035157-14.996093-.421874c.011718-.398438.019531-.796876.019531-1.195313 0-3.859375-.53125-7.691406-1.574219-11.390625l14.4375-4.074219c1.417969 5.023438 2.136719 10.226563 2.140625 15.464844-.003906.539063-.011719 1.078125-.027344 1.617187zm-19.664062-20.867187c-1.949219-3.75-4.46875-7.183594-7.488281-10.203125l10.609374-10.609375c4.101563 4.105469 7.53125 8.777344 10.191407 13.894531zm0 0"/><path d="m220.660156 74.675781c-4.148437-6.433593-9.261718-12.148437-15.207031-16.992187l9.472656-11.632813c7.171875 5.839844 13.34375 12.738281 18.34375 20.503907zm-22.574218-22.265625c-3.839844-2.398437-7.917969-4.441406-12.128907-6.074218l5.421875-13.988282c5.085938 1.972656 10.019532 4.441406 14.65625 7.34375zm-20.753907-8.800781c-4.375-1.085937-8.886719-1.761719-13.414062-2.003906l.808593-14.980469c5.472657.296875 10.925782 1.109375 16.21875 2.421875zm0 0"/><path d="m330.957031 99.6875-9.828125-11.335938c10.289063-8.921874 16.925782-21.207031 18.691406-34.601562l14.875 1.960938c-2.246093 17.035156-10.675781 32.648437-23.738281 43.976562zm0 0"/></g></svg>