<?xml version="1.0" standalone="no"?>
<!DOCTYPE svg PUBLIC "-//W3C//DTD SVG 20010904//EN"
 "http://www.w3.org/TR/2001/REC-SVG-20010904/DTD/svg10.dtd">
<svg version="1.0" xmlns="http://www.w3.org/2000/svg"
     width="1200.000000pt" height="1200.000000pt" viewBox="0 0 1200.000000 1200.000000"
     preserveAspectRatio="xMidYMid meet">

  <defs>

    <linearGradient id="g-root" x1="0%" y1="0%" x2="0%" y2="100%">
      <stop offset="0%" stop-color="#D80000" />
      <stop offset="100%" stop-color="#FF0000" />
    </linearGradient>

    <linearGradient id="g-sacral" x1="0%" y1="0%" x2="0%" y2="100%">
      <stop offset="0%" stop-color="#E59100" />
      <stop offset="100%" stop-color="#ffa500" />
    </linearGradient>

    <linearGradient id="g-solar-plexus" x1="0%" y1="0%" x2="0%" y2="100%">
      <stop offset="0%" stop-color="#E5E500" />
      <stop offset="100%" stop-color="#ffff00" />
    </linearGradient>

    <linearGradient id="g-heart" x1="0%" y1="0%" x2="0%" y2="100%">
      <stop offset="0%" stop-color="#00C116" />
      <stop offset="100%" stop-color="#00F21C" />
    </linearGradient>

    <linearGradient id="g-throat" x1="0%" y1="0%" x2="0%" y2="100%">
      <stop offset="0%" stop-color="#0000ff" />
      <stop offset="100%" stop-color="#00bfff" />
    </linearGradient>

    <linearGradient id="g-third-eye" x1="0%" y1="0%" x2="0%" y2="100%">
      <stop offset="0%" stop-color="#4b0082" />
      <stop offset="100%" stop-color="#6200B2" />
    </linearGradient>

    <linearGradient id="g-crown" x1="0%" y1="0%" x2="0%" y2="100%">
      <stop offset="0%" stop-color="#630460" />
      <stop offset="100%" stop-color="#C16CC1" />
    </linearGradient>

  </defs>  
  
  <g transform="translate(0.000000,1200.000000) scale(0.100000,-0.100000)"
     fill="url(#g-root)" stroke="url(#g-root)">
    <path d="M595 4135 c-386 -85 -552 -347 -431 -680 115 -316 556 -633 891 -639
          87 -1 94 15 28 64 -79 58 -274 259 -346 355 -77 104 -160 263 -182 350 -17 68
          -19 199 -4 264 15 65 56 143 111 212 71 88 59 102 -67 74z"/>
    <path d="M11294 4136 c-4 -10 7 -31 31 -57 147 -163 178 -370 89 -590 -75
          -185 -250 -402 -488 -605 -76 -65 -71 -79 28 -71 226 20 487 150 676 336 106
          106 174 207 213 319 68 199 32 377 -103 506 -88 84 -236 149 -392 171 -39 6
          -49 4 -54 -9z"/>
  </g>
  
  <g transform="translate(0.000000,1200.000000) scale(0.100000,-0.100000)"
     fill="url(#g-sacral)" stroke="url(#g-sacral)">
    <path d="M1770 6404 c-19 -2 -84 -9 -145 -15 -705 -68 -1287 -307 -1578 -646
          l-49 -58 6 -75 c19 -269 168 -605 394 -895 77 -98 299 -317 412 -407 588 -466
          1347 -778 2100 -863 163 -18 513 -37 534 -29 24 9 19 33 -6 38 -595 128 -1213
          348 -1629 581 -348 195 -546 363 -791 669 -237 296 -366 560 -376 771 l-4 100
          41 52 c109 139 366 316 686 473 187 91 321 149 605 259 25 10 45 24 45 32 0
          11 -21 14 -105 15 -58 1 -121 0 -140 -2z"/>
  </g>
  
  <g transform="translate(0.000000,1200.000000) scale(0.100000,-0.100000)"
     fill="url(#g-solar-plexus)" stroke="url(#g-solar-plexus)">
    <path d="M9985 6401 c-4 -7 -3 -16 1 -21 5 -4 77 -34 159 -65 535 -205 959
          -447 1153 -660 67 -73 78 -112 62 -219 -36 -251 -201 -538 -512 -893 -385
          -439 -1115 -803 -2092 -1044 -88 -21 -167 -39 -177 -39 -9 0 -22 -7 -30 -16
          -23 -28 9 -34 141 -29 730 33 1302 183 1893 497 353 188 639 398 872 640 182
          189 310 368 402 566 81 172 143 398 143 517 0 49 -4 58 -50 114 -63 75 -176
          169 -300 250 -350 230 -913 382 -1506 408 -115 4 -153 3 -159 -6z"/>
  </g>
    
  <g transform="translate(0.000000,1200.000000) scale(0.100000,-0.100000)"
     fill="url(#g-heart)" stroke="url(#g-heart)">
    <path d="M5854 10942 c-242 -146 -473 -323 -646 -496 -314 -313 -503 -641
          -579 -1006 -39 -188 -34 -464 12 -692 81 -404 314 -750 689 -1025 44 -32 79
          -60 79 -63 0 -3 -55 -38 -122 -78 -511 -306 -895 -674 -1141 -1094 -467 -798
          -554 -1676 -244 -2461 163 -415 449 -834 843 -1235 336 -344 664 -597 1035
          -802 52 -29 99 -55 103 -59 10 -10 -203 -123 -358 -191 -432 -190 -849 -302
          -1347 -361 -222 -27 -670 -32 -858 -10 -491 56 -878 175 -1224 375 -254 148
          -536 399 -536 479 0 55 194 267 366 399 257 196 526 327 862 419 216 59 256
          81 220 117 -15 15 -258 16 -448 2 -657 -50 -1170 -241 -1503 -559 -124 -119
          -207 -228 -265 -350 l-45 -95 22 -41 c43 -81 158 -223 281 -345 274 -275 614
          -481 1009 -610 368 -121 659 -164 1106 -164 283 0 415 8 695 45 726 94 1461
          364 2010 737 82 55 128 81 136 76 526 -371 1124 -623 1814 -764 371 -76 920
          -115 1255 -91 776 57 1364 291 1864 740 135 121 351 385 351 428 0 23 -305
          322 -425 417 -742 590 -1642 830 -2565 686 -814 -128 -1588 -531 -2187 -1139
          l-122 -124 -48 38 c-78 63 -374 363 -458 465 -398 482 -687 1006 -855 1550
          -162 524 -186 1056 -70 1516 150 596 549 1120 1165 1531 128 85 278 173 296
          173 20 0 241 -136 388 -238 264 -184 537 -441 707 -668 220 -292 338 -557 395
          -884 20 -111 17 -375 -4 -483 -61 -303 -204 -575 -448 -847 -68 -76 -235 -230
          -260 -238 -18 -7 -135 87 -224 179 -278 288 -448 730 -521 1349 -13 116 -24
          447 -24 718 0 6 -11 12 -24 12 -43 0 -72 -59 -152 -314 -254 -807 -205 -1509
          144 -2046 156 -240 406 -474 668 -623 114 -66 228 -117 260 -117 28 0 172 90
          334 211 291 214 536 469 712 739 457 700 463 1582 15 2380 -119 210 -257 389
          -457 590 -242 244 -528 448 -848 609 l-123 61 78 59 c323 244 524 510 633 840
          91 273 112 625 55 902 -51 245 -174 501 -355 739 -192 252 -534 540 -866 729
          -118 67 -142 67 -250 3z m152 -52 c47 -18 195 -140 314 -260 306 -305 503
          -652 581 -1020 18 -85 23 -139 23 -285 1 -208 -9 -277 -65 -449 -111 -339
          -334 -589 -765 -857 l-114 -70 -63 37 c-541 325 -803 657 -873 1109 -20 130
          -15 382 10 505 53 261 195 553 389 798 175 222 466 498 529 502 4 0 19 -5 34
          -10z m2919 -7994 c292 -51 521 -126 784 -257 159 -79 363 -207 480 -303 93
          -76 201 -191 201 -213 0 -63 -225 -258 -440 -382 -909 -523 -2362 -516 -3526
          17 -161 73 -354 178 -354 191 0 5 45 48 99 96 294 258 618 460 981 612 312
          132 645 219 960 252 58 6 121 13 140 15 19 2 145 3 280 1 211 -2 266 -6 395
          -29z"/>
  </g>
    
  <g transform="translate(0.000000,1200.000000) scale(0.100000,-0.100000)"
     fill="url(#g-throat)" stroke="url(#g-throat)">
    <path d="M2698 8863 c-55 -4 -59 -6 -109 -61 -68 -75 -171 -232 -215 -327 -50
          -108 -99 -264 -118 -374 -21 -122 -21 -400 -1 -558 88 -678 448 -1286 1015
          -1714 57 -43 108 -79 113 -79 29 0 9 40 -70 137 -292 355 -498 747 -583 1108
          -69 294 -67 645 5 931 35 140 118 305 196 389 78 83 107 100 204 120 242 49
          649 -5 1114 -149 162 -50 171 -37 52 82 -269 266 -699 450 -1151 491 -108 10
          -322 12 -452 4z"/>    
  </g>
    
  <g transform="translate(0.000000,1200.000000) scale(0.100000,-0.100000)"
     fill="url(#g-third-eye)" stroke="url(#g-third-eye)">
    <path d="M8830 8859 c-326 -33 -664 -150 -913 -315 -99 -67 -297 -245 -297
          -269 0 -15 27 -28 41 -19 20 12 341 104 449 128 359 80 728 89 859 22 43 -23
          127 -110 169 -174 205 -322 246 -898 96 -1373 -105 -334 -298 -677 -552 -981
          -75 -90 -94 -128 -64 -128 5 0 52 32 103 70 637 477 997 1143 1044 1930 17
          280 -51 577 -189 823 -44 79 -139 208 -190 256 l-35 34 -213 3 c-117 1 -256
          -2 -308 -7z"/>    
  </g>
    
  <g transform="translate(0.000000,1200.000000) scale(0.100000,-0.100000)"
     fill="url(#g-crown)" stroke="url(#g-crown)">
    <path d="M1253 7855 c-85 -19 -178 -65 -241 -120 -89 -79 -180 -225 -213 -340
          -21 -73 -18 -255 5 -330 50 -168 175 -341 311 -435 75 -51 80 -41 52 95 -16
          79 -20 141 -21 295 0 173 2 202 21 257 73 215 326 379 622 401 69 6 86 10 89
          24 5 24 -79 69 -208 112 -167 56 -293 68 -417 41z"/>
    <path d="M10497 7859 c-130 -19 -377 -120 -377 -155 0 -16 19 -21 115 -28 215
          -17 440 -135 542 -284 69 -102 78 -145 77 -377 0 -159 -4 -220 -21 -297 -22
          -107 -18 -128 19 -111 46 22 156 122 207 189 117 155 166 303 158 474 -9 171
          -70 305 -201 436 -135 135 -303 185 -519 153z"/>    
  </g>
</svg>
